<svg width="33" height="50" viewBox="0 0 33 50" fill="none" xmlns="http://www.w3.org/2000/svg">
  <g clip-path="url(#clip0_60516_15355)">
    <path
      d="M22.572 2.84021C20.412 0.51821 17.172 -0.63379 13.734 0.33821C10.08 1.38221 7.19995 5.68421 7.19995 9.48221V18.4822H25.2V9.68021C25.2 6.99821 24.1919 4.58621 22.572 2.82221V2.84021ZM9.89995 6.44021L12.438 3.90221C12.798 3.54221 13.374 3.54221 13.734 3.90221C14.094 4.26221 14.094 4.83821 13.734 5.19821L11.196 7.73621C11.016 7.91621 10.782 8.00621 10.548 8.00621C10.314 8.00621 10.08 7.91621 9.89995 7.73621C9.53995 7.37621 9.53995 6.78221 9.89995 6.42221V6.44021ZM17.262 7.12421L11.718 12.6682C11.538 12.8482 11.304 12.9382 11.07 12.9382C10.836 12.9382 10.584 12.8482 10.422 12.6682C10.062 12.3082 10.062 11.7322 10.422 11.3722L15.966 5.82821C16.326 5.46821 16.902 5.46821 17.262 5.82821C17.622 6.18821 17.622 6.76421 17.262 7.12421Z"
      fill="url(#paint0_linear_60516_15355)"/>
    <path
      d="M7.19995 20.2852H25.2V24.5872C25.2 28.9792 22.302 33.0652 18.018 33.9652C12.258 35.1712 7.19995 30.4552 7.19995 24.4612V20.2852Z"
      fill="url(#paint1_linear_60516_15355)"/>
    <path
      d="M30.6 20.2852V27.4852C30.6 34.0732 23.454 39.7792 16.866 39.7792H14.742C7.59605 39.7792 1.80005 33.9832 1.80005 26.8372L1.80005 20.3032"
      stroke="url(#paint2_linear_60516_15355)" stroke-width="3.6" stroke-linecap="round" stroke-linejoin="round"/>
    <path d="M16.2 40.082V47.282" stroke="url(#paint3_linear_60516_15355)" stroke-width="3.6" stroke-linecap="round"
          stroke-linejoin="round"/>
    <path d="M9 47.2852H23.4" stroke="url(#paint4_linear_60516_15355)" stroke-width="3.6" stroke-linecap="round"
          stroke-linejoin="round"/>
  </g>
  <defs>
    <linearGradient id="paint0_linear_60516_15355" x1="7.19995" y1="9.2372" x2="25.5439" y2="11.5392"
                    gradientUnits="userSpaceOnUse">
      <stop stop-color="#D6FB72"/>
      <stop offset="1" stop-color="#76F9B1"/>
    </linearGradient>
    <linearGradient id="paint1_linear_60516_15355" x1="7.19995" y1="27.2199" x2="25.3255" y2="30.2522"
                    gradientUnits="userSpaceOnUse">
      <stop stop-color="#D6FB72"/>
      <stop offset="1" stop-color="#76F9B1"/>
    </linearGradient>
    <linearGradient id="paint2_linear_60516_15355" x1="1.80005" y1="30.0322" x2="30.5691" y2="35.511"
                    gradientUnits="userSpaceOnUse">
      <stop stop-color="#D6FB72"/>
      <stop offset="1" stop-color="#76F9B1"/>
    </linearGradient>
    <linearGradient id="paint3_linear_60516_15355" x1="16.2" y1="43.682" x2="17.2348" y2="43.7006"
                    gradientUnits="userSpaceOnUse">
      <stop stop-color="#D6FB72"/>
      <stop offset="1" stop-color="#76F9B1"/>
    </linearGradient>
    <linearGradient id="paint4_linear_60516_15355" x1="9" y1="47.7852" x2="12.353" y2="54.0091"
                    gradientUnits="userSpaceOnUse">
      <stop stop-color="#D6FB72"/>
      <stop offset="1" stop-color="#76F9B1"/>
    </linearGradient>
    <clipPath id="clip0_60516_15355">
      <rect width="32.4" height="49.086" fill="white"/>
    </clipPath>
  </defs>
</svg>
